<svg width="300" height="292" viewBox="0 0 300 292" fill="none" xmlns="http://www.w3.org/2000/svg">
<g clip-path="url(#clip0_24_534)">
<path d="M191.345 65.4558H175.382V201.389C175.382 203.522 174.962 205.633 174.145 207.604C173.328 209.574 172.13 211.365 170.62 212.873C169.11 214.381 167.318 215.577 165.345 216.393C163.373 217.209 161.258 217.629 159.123 217.629H37.085V217.785C37.085 219.918 37.5055 222.03 38.3226 224C39.1397 225.97 40.3373 227.761 41.8471 229.269C43.3569 230.777 45.1493 231.973 47.122 232.789C49.0946 233.605 51.2089 234.026 53.344 234.026H191.345C193.48 234.026 195.594 233.605 197.567 232.789C199.539 231.973 201.332 230.777 202.841 229.269C204.351 227.761 205.549 225.97 206.366 224C207.183 222.03 207.604 219.918 207.604 217.785V81.6965C207.604 77.3892 205.891 73.2583 202.841 70.2126C199.792 67.1669 195.657 65.4558 191.345 65.4558Z" fill="#F2F2F2"/>
<path d="M191.345 65.9558C195.524 65.9559 199.533 67.6142 202.488 70.5662C205.444 73.5181 207.103 77.5217 207.104 81.6961V217.785C207.104 219.852 206.696 221.899 205.904 223.808C205.112 225.718 203.952 227.453 202.488 228.915C201.025 230.376 199.288 231.536 197.376 232.327C195.464 233.118 193.414 233.525 191.345 233.525H53.3438C51.2743 233.525 49.2254 233.118 47.3135 232.327C45.4015 231.536 43.6635 230.377 42.2002 228.915C40.737 227.453 39.5761 225.718 38.7842 223.808C38.0363 222.005 37.6316 220.079 37.5889 218.13H159.123C161.324 218.13 163.503 217.696 165.536 216.855C167.569 216.014 169.417 214.781 170.974 213.226C172.53 211.672 173.764 209.827 174.606 207.796C175.449 205.765 175.883 203.587 175.883 201.388V65.9558H191.345Z" stroke="black" stroke-opacity="0.25"/>
<path d="M267.013 281.474C267.296 281.487 267.576 281.413 267.815 281.262C268.054 281.111 268.24 280.89 268.35 280.629C268.459 280.369 268.485 280.081 268.425 279.805C268.365 279.529 268.221 279.278 268.013 279.086L267.919 278.71C267.931 278.68 267.944 278.65 267.956 278.62C268.241 277.949 268.718 277.376 269.327 276.974C269.937 276.573 270.652 276.36 271.382 276.362C272.112 276.365 272.825 276.583 273.432 276.99C274.038 277.396 274.511 277.972 274.79 278.646C275.908 281.335 277.331 284.028 277.682 286.872C277.836 288.128 277.771 289.402 277.489 290.637C280.115 284.917 281.478 278.699 281.487 272.406C281.487 270.827 281.399 269.25 281.224 267.68C281.078 266.394 280.877 265.116 280.619 263.848C279.212 256.967 276.191 250.518 271.804 245.029C269.68 243.872 267.963 242.093 266.883 239.931C266.492 239.153 266.216 238.324 266.063 237.467C266.302 237.499 266.966 233.855 266.785 233.631C267.119 233.126 267.716 232.874 268.081 232.38C269.894 229.925 272.392 230.354 273.696 233.69C276.482 235.095 276.509 237.424 274.8 239.664C273.712 241.089 273.563 243.017 272.608 244.543C272.707 244.669 272.809 244.79 272.907 244.916C274.701 247.221 276.265 249.696 277.577 252.305C277.258 249.382 277.638 246.424 278.687 243.676C279.75 241.115 281.742 238.958 283.496 236.744C283.96 236.15 284.59 235.706 285.307 235.469C286.023 235.231 286.794 235.212 287.522 235.412C288.25 235.613 288.901 236.024 289.395 236.594C289.889 237.165 290.202 237.869 290.295 238.617C290.299 238.649 290.303 238.682 290.306 238.715C290.045 238.861 289.79 239.017 289.541 239.182C289.227 239.391 288.984 239.69 288.844 240.04C288.703 240.389 288.672 240.773 288.753 241.141C288.835 241.509 289.026 241.843 289.301 242.101C289.576 242.358 289.923 242.527 290.295 242.584L290.333 242.59C290.241 243.528 290.077 244.457 289.843 245.371C292.093 254.064 287.234 257.23 280.297 257.373C280.144 257.451 279.995 257.529 279.841 257.604C281.159 261.333 281.985 265.217 282.299 269.159C282.478 271.484 282.467 273.82 282.268 276.144L282.28 276.062C282.783 273.478 284.163 271.146 286.187 269.461C289.194 266.994 293.441 266.085 296.685 264.102C297.03 263.881 297.431 263.763 297.84 263.762C298.25 263.761 298.651 263.877 298.997 264.097C299.343 264.316 299.619 264.63 299.792 265C299.965 265.371 300.029 265.784 299.975 266.189L299.962 266.276C299.478 266.473 299.007 266.699 298.552 266.955C298.291 267.101 298.036 267.257 297.787 267.422C297.473 267.631 297.23 267.93 297.09 268.28C296.949 268.629 296.918 269.013 296.999 269.381C297.081 269.748 297.272 270.083 297.547 270.34C297.822 270.598 298.169 270.766 298.541 270.824L298.579 270.83C298.607 270.834 298.631 270.838 298.658 270.842C297.832 272.812 296.672 274.626 295.23 276.203C293.823 283.792 287.779 284.512 281.314 282.302H281.31C280.601 285.381 279.573 288.378 278.243 291.245H267.288C267.249 291.123 267.213 290.998 267.178 290.876C268.192 290.94 269.21 290.879 270.209 290.696C269.396 289.7 268.584 288.695 267.771 287.699C267.753 287.681 267.736 287.661 267.72 287.64C267.307 287.13 266.891 286.625 266.479 286.115L266.479 286.114C266.457 284.551 266.636 282.992 267.013 281.475L267.013 281.474Z" fill="#A39797"/>
<path d="M146.349 46.9652C146.749 47.5705 147.275 48.0818 147.893 48.4637C148.51 48.8456 149.203 49.0891 149.924 49.1772C150.644 49.2653 151.376 49.196 152.067 48.9741C152.758 48.7521 153.393 48.3828 153.927 47.8917L176.704 58.1561L181.095 52.5612L153.954 40.5677C153.059 39.7308 151.888 39.2507 150.663 39.2184C149.438 39.186 148.244 39.6038 147.306 40.3923C146.369 41.1809 145.754 42.2856 145.577 43.497C145.401 44.7084 145.675 45.9424 146.349 46.9652H146.349Z" fill="#FFCBA5"/>
<path d="M244.097 53.3656L246.356 66.1522C246.461 66.7488 246.441 67.3607 246.295 67.9488C246.15 68.5369 245.883 69.0881 245.512 69.5671C245.141 70.0461 244.673 70.4422 244.14 70.7301C243.606 71.0179 243.018 71.1912 242.413 71.2387L204.028 74.2538L158.908 54.0833L164.297 43.8648L203.466 56.2543L244.097 53.3656Z" fill="#FFDC45"/>
<path d="M154.26 44.2018H16.2591C7.27944 44.2018 0 51.4729 0 60.4424V196.531C0 205.5 7.27944 212.771 16.2591 212.771H154.26C163.239 212.771 170.519 205.5 170.519 196.531V60.4424C170.519 51.4729 163.239 44.2018 154.26 44.2018Z" fill="#F2F2F2"/>
<path d="M16.2588 44.7018H154.26C162.964 44.7018 170.018 51.7494 170.019 60.442V196.531C170.019 205.224 162.964 212.271 154.26 212.271H16.2588C7.55491 212.271 0.500033 205.224 0.5 196.531V60.442C0.500209 51.7495 7.55502 44.7019 16.2588 44.7018Z" stroke="black" stroke-opacity="0.25"/>
<path d="M16.2591 47.5416C14.5631 47.5416 12.8836 47.8753 11.3166 48.5236C9.74966 49.1719 8.32588 50.1222 7.12658 51.3201C5.92727 52.5181 4.97592 53.9402 4.32686 55.5054C3.67781 57.0706 3.34375 58.7482 3.34375 60.4423V196.531C3.34375 199.952 4.70447 203.234 7.12658 205.653C9.54868 208.072 12.8338 209.432 16.2591 209.432H104.334C112.587 209.432 120.758 207.808 128.382 204.654C136.007 201.499 142.934 196.876 148.769 191.047C154.605 185.218 159.233 178.299 162.391 170.683C165.549 163.068 167.175 154.905 167.175 146.663V60.4423C167.175 58.7482 166.841 57.0706 166.192 55.5054C165.543 53.9402 164.591 52.5181 163.392 51.3201C162.193 50.1222 160.769 49.1719 159.202 48.5236C157.635 47.8753 155.956 47.5416 154.259 47.5416H16.2591Z" fill="white"/>
<path d="M123.837 88.8422H46.3801C45.6693 88.8422 44.9877 88.5601 44.4851 88.0581C43.9825 87.5561 43.7002 86.8753 43.7002 86.1653C43.7002 85.4554 43.9825 84.7745 44.4851 84.2725C44.9877 83.7705 45.6693 83.4885 46.3801 83.4885H123.837C124.548 83.4885 125.229 83.7705 125.732 84.2725C126.234 84.7745 126.517 85.4554 126.517 86.1653C126.517 86.8753 126.234 87.5561 125.732 88.0581C125.229 88.5601 124.548 88.8422 123.837 88.8422Z" fill="#F2F2F2"/>
<path d="M46.3799 83.9885H123.837C124.415 83.9885 124.97 84.2179 125.379 84.6262C125.788 85.0345 126.017 85.5882 126.017 86.1653C126.017 86.7423 125.787 87.2961 125.379 87.7043C124.97 88.1126 124.415 88.342 123.837 88.342H46.3799C45.8017 88.342 45.2476 88.1125 44.8389 87.7043C44.4301 87.2961 44.2002 86.7424 44.2002 86.1653C44.2002 85.5882 44.4301 85.0345 44.8389 84.6262C45.2476 84.2181 45.8017 83.9886 46.3799 83.9885Z" stroke="black" stroke-opacity="0.25"/>
<path d="M123.837 145.925H46.3801C45.6693 145.925 44.9877 145.643 44.4851 145.141C43.9825 144.639 43.7002 143.958 43.7002 143.248C43.7002 142.538 43.9825 141.857 44.4851 141.355C44.9877 140.853 45.6693 140.571 46.3801 140.571H123.837C124.548 140.571 125.229 140.853 125.732 141.355C126.234 141.857 126.517 142.538 126.517 143.248C126.517 143.958 126.234 144.639 125.732 145.141C125.229 145.643 124.548 145.925 123.837 145.925Z" fill="#F2F2F2"/>
<path d="M155.29 117.402H14.9266C14.2158 117.402 13.5342 117.12 13.0316 116.618C12.529 116.116 12.2467 115.435 12.2467 114.725C12.2467 114.015 12.529 113.334 13.0316 112.832C13.5342 112.33 14.2158 112.048 14.9266 112.048H155.29C156.001 112.048 156.683 112.33 157.185 112.832C157.688 113.334 157.97 114.015 157.97 114.725C157.97 115.435 157.688 116.116 157.185 116.618C156.683 117.12 156.001 117.402 155.29 117.402Z" fill="#F2F2F2"/>
<path d="M14.9264 112.548H155.291C155.869 112.549 156.423 112.778 156.832 113.186C157.24 113.594 157.47 114.148 157.47 114.725C157.47 115.302 157.24 115.856 156.832 116.264C156.423 116.672 155.869 116.902 155.291 116.902H14.9264C14.3482 116.902 13.7941 116.672 13.3854 116.264C12.9766 115.856 12.7467 115.302 12.7467 114.725C12.7467 114.148 12.9766 113.594 13.3854 113.186C13.7941 112.778 14.3482 112.549 14.9264 112.548Z" stroke="black" stroke-opacity="0.25"/>
<path d="M239.247 109.724L225.265 139.48L279.054 134.038L267.826 105.473L239.247 109.724Z" fill="#FFCBA5"/>
<path d="M251.753 280.749L246.653 280.705L244.396 260.598L251.922 260.662L251.753 280.749Z" fill="#FFCBA5"/>
<path d="M235.417 288.849C235.413 289.453 235.648 290.034 236.072 290.465C236.496 290.895 237.073 291.14 237.678 291.146L247.818 291.231L249.593 287.637L250.245 291.249L254.071 291.284L253.104 278.4L251.773 278.311L246.344 277.937L244.592 277.82L244.562 281.466L236.416 286.984C236.111 287.191 235.861 287.469 235.687 287.794C235.513 288.118 235.42 288.481 235.417 288.849Z" fill="white"/>
<path d="M246.31 278.436V278.437L251.739 278.811H251.74L252.638 278.869L253.531 290.778L250.662 290.752L250.085 287.548L249.816 286.057L249.145 287.415L247.508 290.728L237.683 290.646C237.21 290.642 236.759 290.451 236.428 290.114C236.097 289.778 235.914 289.325 235.917 288.854C235.92 288.566 235.991 288.283 236.127 288.029C236.263 287.776 236.458 287.56 236.696 287.398L244.842 281.88L245.06 281.732L245.062 281.47L245.087 278.354L246.31 278.436Z" stroke="black" stroke-opacity="0.25"/>
<path d="M195.314 280.772L190.452 279.233L194.208 259.352L201.384 261.621L195.314 280.772Z" fill="#FFCBA5"/>
<path d="M177.317 283.72C177.135 284.296 177.189 284.921 177.467 285.457C177.746 285.993 178.225 286.397 178.802 286.58L188.469 289.636L191.223 286.722L190.784 290.366L194.43 291.522L197.297 278.923L196.05 278.448L190.971 276.497L189.331 275.871L188.229 279.347L178.82 282.231C178.468 282.339 178.147 282.531 177.885 282.791C177.623 283.05 177.428 283.369 177.317 283.72Z" fill="white"/>
<path d="M190.792 276.963V276.964L195.871 278.915H195.872L196.713 279.235L194.063 290.88L191.329 290.015L191.719 286.781L191.901 285.276L190.859 286.378L188.32 289.065L178.952 286.103H178.951C178.502 285.959 178.128 285.644 177.911 285.227C177.694 284.808 177.651 284.32 177.793 283.87C177.88 283.597 178.032 283.348 178.236 283.146C178.389 282.994 178.569 282.872 178.765 282.784L178.967 282.709L188.376 279.824L188.627 279.748L188.706 279.498L189.647 276.526L190.792 276.963Z" stroke="black" stroke-opacity="0.25"/>
<path d="M276.604 125.67L227.697 134.622C227.697 134.622 219.852 140.483 221.95 142.582C224.049 144.681 224.374 144.356 222.996 145.733C221.617 147.11 218.636 148.951 218.607 150.156C218.577 151.361 196.691 205.407 196.691 205.407C196.691 205.407 199.123 204.193 197.299 206.015C195.475 207.836 195.475 209.342 195.475 209.342L186.964 266.741L200.787 267.553L214.322 215.224L244.512 166.337C244.512 166.337 247.508 209.932 247.633 212.831C247.759 215.731 249.583 212.087 247.759 215.731C245.935 219.374 244.719 216.945 245.935 219.374C247.151 221.803 241.555 271.255 241.555 271.255H254.172L281.232 168.755C281.232 168.755 290.859 139.451 276.604 125.67Z" fill="white"/>
<path d="M276.438 126.208C283.237 132.945 284.382 143.41 283.765 152.346C283.454 156.837 282.701 160.904 282.025 163.849C281.688 165.321 281.37 166.511 281.137 167.332C281.02 167.743 280.924 168.061 280.858 168.276C280.825 168.383 280.8 168.465 280.782 168.519C280.774 168.546 280.767 168.566 280.763 168.579C280.761 168.586 280.759 168.592 280.758 168.595C280.757 168.596 280.757 168.597 280.757 168.598V168.599L280.752 168.613L280.748 168.627L253.787 270.755H242.114C242.155 270.392 242.215 269.86 242.29 269.181C242.441 267.824 242.654 265.882 242.907 263.544C243.413 258.869 244.075 252.61 244.698 246.275C245.322 239.94 245.909 233.525 246.263 228.54C246.44 226.049 246.559 223.909 246.596 222.313C246.614 221.516 246.613 220.845 246.586 220.331C246.573 220.075 246.552 219.849 246.523 219.662C246.497 219.487 246.457 219.3 246.382 219.151C246.228 218.844 246.119 218.625 246.044 218.461C246.037 218.446 246.031 218.43 246.024 218.416C246.237 218.325 246.533 218.175 246.872 217.864C247.28 217.489 247.731 216.903 248.206 215.954C248.653 215.061 248.898 214.574 248.993 214.329C249.017 214.268 249.045 214.186 249.058 214.102C249.063 214.063 249.11 213.774 248.858 213.58C248.74 213.49 248.616 213.473 248.544 213.471C248.474 213.47 248.416 213.482 248.386 213.49C248.328 213.504 248.269 213.527 248.249 213.535L248.246 213.536C248.241 213.522 248.232 213.507 248.227 213.489C248.186 213.361 248.148 213.148 248.133 212.81C248.07 211.352 247.289 199.718 246.524 188.463C246.142 182.833 245.763 177.292 245.48 173.16C245.339 171.094 245.222 169.38 245.14 168.182C245.099 167.583 245.067 167.113 245.045 166.793C245.034 166.634 245.025 166.511 245.02 166.428C245.017 166.387 245.014 166.355 245.013 166.334C245.012 166.324 245.012 166.316 245.012 166.311C245.012 166.309 245.011 166.306 245.011 166.305V166.303L244.904 164.75L244.087 166.075L213.896 214.961L213.856 215.026L213.838 215.099L200.405 267.03L187.538 266.273L195.97 209.415L195.976 209.378V209.344C195.976 209.339 195.976 209.328 195.978 209.313C195.98 209.282 195.985 209.23 195.997 209.161C196.021 209.021 196.069 208.807 196.171 208.538C196.374 208 196.791 207.229 197.652 206.369C197.888 206.133 198.066 205.935 198.193 205.769C198.308 205.62 198.426 205.441 198.464 205.249C198.485 205.143 198.491 204.986 198.406 204.829C198.319 204.667 198.178 204.585 198.066 204.547C197.88 204.485 197.685 204.516 197.582 204.537C197.722 204.191 197.894 203.766 198.095 203.27C198.693 201.79 199.549 199.674 200.575 197.131C202.628 192.045 205.364 185.251 208.102 178.419C210.839 171.588 213.579 164.718 215.636 159.48C216.664 156.862 217.522 154.649 218.124 153.053C218.425 152.256 218.663 151.609 218.827 151.141C218.909 150.908 218.974 150.715 219.02 150.568C219.042 150.495 219.061 150.428 219.075 150.371C219.086 150.328 219.104 150.248 219.106 150.168C219.109 150.049 219.201 149.822 219.494 149.472C219.771 149.142 220.164 148.777 220.619 148.39C221.074 148.003 221.566 147.615 222.048 147.224C222.522 146.839 222.984 146.451 223.349 146.087C223.675 145.761 223.96 145.48 224.125 145.232C224.214 145.098 224.294 144.938 224.319 144.75C224.346 144.552 224.305 144.371 224.227 144.21C224.093 143.934 223.82 143.671 223.535 143.403C223.223 143.109 222.821 142.747 222.304 142.229C222.03 141.955 221.985 141.492 222.406 140.684C222.811 139.907 223.553 139.02 224.394 138.165C225.227 137.318 226.127 136.532 226.822 135.955C227.169 135.668 227.465 135.434 227.672 135.272C227.77 135.196 227.847 135.134 227.902 135.092L276.438 126.208Z" stroke="black" stroke-opacity="0.25"/>
<path d="M262.197 43.683L242.606 41.6497L237.53 48.2319L231.617 51.3777C229.115 52.7089 227.049 54.7319 225.668 57.2048C224.286 59.6776 223.647 62.4956 223.826 65.3218L230.736 105.473C230.736 105.473 224.899 118.602 228.913 121.869C232.926 125.137 225.81 133.229 234.384 129.156C242.958 125.083 279.98 129.764 279.98 129.764L272.077 107.295L277.981 85.2166L278.631 66.7041C278.752 63.2447 277.724 59.8424 275.708 57.0275C273.691 54.2126 270.799 52.1432 267.481 51.1419L266.656 50.8927L262.197 43.683Z" fill="#FFDC45"/>
<path d="M289.168 28.681C289.296 34.1967 287.233 39.5376 284.268 44.2287C283.387 41.4901 281.804 38.9976 280.152 36.6216C280.985 41.7616 280.098 47.0324 277.629 51.6182C277.542 51.6804 277.452 51.7382 277.359 51.7912C274.943 53.2432 271.879 53.8313 269.265 52.7826C274.666 46.9671 275.353 37.3316 270.825 30.8085C269.543 28.9576 267.885 27.3206 267.091 25.2141C265.837 21.8533 267.042 18.1528 267.803 14.6487C268.513 11.3875 268.638 7.5066 266.448 5.11652C266.681 4.78251 267 4.51664 267.371 4.34615C267.742 4.17566 268.151 4.10668 268.557 4.14628C269.908 4.33683 270.891 5.50937 271.517 6.71701C272.143 7.92461 272.556 9.26305 273.428 10.3061C275.044 12.2585 277.796 12.72 280.115 13.749C285.731 16.2476 289.033 22.5435 289.168 28.681Z" fill="#2F2E41"/>
<path d="M144.48 291.277C144.48 291.372 144.498 291.466 144.534 291.554C144.571 291.642 144.624 291.722 144.691 291.789C144.759 291.856 144.838 291.909 144.926 291.946C145.014 291.982 145.108 292 145.203 292H299.191C299.383 292 299.567 291.924 299.703 291.788C299.838 291.653 299.915 291.469 299.915 291.277C299.915 291.086 299.838 290.902 299.703 290.766C299.567 290.631 299.383 290.555 299.191 290.555H145.203C145.108 290.554 145.014 290.573 144.926 290.609C144.838 290.645 144.759 290.699 144.691 290.766C144.624 290.833 144.571 290.913 144.534 291C144.498 291.088 144.48 291.182 144.48 291.277Z" fill="#CCCCCC"/>
<path d="M290.381 156.52C293.402 156.52 295.852 154.073 295.852 151.055C295.852 148.036 293.402 145.589 290.381 145.589C287.359 145.589 284.909 148.036 284.909 151.055C284.909 154.073 287.359 156.52 290.381 156.52Z" fill="#6A00BF"/>
<path d="M241.895 25.5273C242.216 24.4054 240.004 31.2637 241.071 31.3875C245.933 31.9446 252.607 34.8448 255.993 36.1978C256.145 36.1801 256.298 36.1624 256.446 36.1403C256.809 36.1005 257.163 36.043 257.513 35.9767C265.397 34.4866 268.429 22.3892 268.429 22.2786C268.429 21.7348 267.122 6.79776 265.064 6.57672C264.523 6.51811 263.98 6.48859 263.436 6.48828H258.328C257.271 6.26076 256.199 6.10565 255.121 6.02402H255.112C244.829 5.2414 236.72 11.5023 237.478 19.1206C237.482 19.1294 237.491 19.1383 237.496 19.1471C237.716 19.4743 237.908 19.7838 238.079 20.08C238.245 20.3586 238.384 20.6239 238.505 20.8759C239.442 22.8214 237.033 25.2694 238.63 25.7263C240.755 26.3341 233.042 46.3085 241.452 46.3085C237.361 47.4704 241.01 28.6224 241.895 25.5273Z" fill="#2F2E41"/>
<path d="M251.075 37.2475C257.755 37.2475 263.17 31.8389 263.17 25.167C263.17 18.495 257.755 13.0864 251.075 13.0864C244.396 13.0864 238.981 18.495 238.981 25.167C238.981 31.8389 244.396 37.2475 251.075 37.2475Z" fill="#FFCBA5"/>
<path d="M237.478 19.7793C237.68 19.8854 237.877 19.9827 238.079 20.08C238.29 20.1817 238.5 20.2834 238.711 20.3762C242.761 22.2112 246.057 22.4145 248.058 19.7793C248.111 18.3927 248.423 17.0282 248.977 15.7557C248.879 17.1778 249.254 18.5923 250.044 19.7793H254.072C258.22 22.5295 260.35 22.8169 257.471 31.8456C256.668 34.3615 253.476 49.0012 254.732 51.1722C255.095 51.1324 258.96 35.0974 259.31 35.0311C267.194 33.541 272.204 20.5663 271.562 19.8324C271.566 17.7452 271.085 15.6855 270.159 13.8147C268.987 11.4444 267.16 9.45901 264.893 8.09323C263.543 7.43903 262.135 6.91063 260.687 6.51474C260.651 6.50589 260.619 6.49704 260.584 6.48821C260.14 6.36882 259.687 6.25829 259.234 6.16543C258.298 5.96806 257.352 5.82487 256.399 5.73655C256.332 5.73212 256.265 5.72769 256.202 5.72769C255.822 5.72858 255.449 5.83086 255.121 6.02396C255.117 6.02396 255.117 6.02836 255.112 6.02836C254.878 6.16494 254.674 6.34683 254.511 6.56335C254.225 6.92767 254.07 7.37794 254.072 7.84118H249.587C249.421 7.84118 249.255 7.84559 249.089 7.85443C246.096 7.9566 243.249 9.1708 241.104 11.2594C238.96 13.348 237.673 16.1607 237.496 19.147C237.482 19.3593 237.478 19.5671 237.478 19.7793Z" fill="#2F2E41"/>
<path d="M263.922 15.9175C268.322 15.9175 271.889 12.3542 271.889 7.95875C271.889 3.56325 268.322 0 263.922 0C259.521 0 255.954 3.56325 255.954 7.95875C255.954 12.3542 259.521 15.9175 263.922 15.9175Z" fill="#2F2E41"/>
<path d="M290.442 153.308C290.831 152.696 291.082 152.006 291.178 151.287C291.273 150.568 291.212 149.837 290.997 149.144C290.782 148.452 290.419 147.814 289.933 147.275C289.447 146.736 288.85 146.309 288.182 146.023L288.222 121.064L281.313 119.356L281.483 149.001C281.085 150.159 281.127 151.422 281.599 152.552C282.072 153.681 282.943 154.598 284.047 155.129C285.151 155.66 286.412 155.768 287.591 155.432C288.77 155.097 289.784 154.341 290.442 153.308V153.308Z" fill="#FFCBA5"/>
<path d="M256.229 61.623L266.98 54.3247C267.482 53.9842 268.049 53.7523 268.646 53.6437C269.242 53.5352 269.855 53.5525 270.445 53.6945C271.034 53.8364 271.587 54.1 272.069 54.4682C272.551 54.8364 272.95 55.3011 273.241 55.8325L291.725 89.571L291.795 138.948L280.255 138.225L275.518 97.4601L256.229 61.623Z" fill="#FFDC45"/>
<path d="M173.658 173.602H58.7558C56.2566 173.602 53.8597 174.594 52.0925 176.359C50.3253 178.124 49.3325 180.518 49.3325 183.015C49.3325 185.511 50.3253 187.905 52.0925 189.67C53.8597 191.435 56.2566 192.427 58.7558 192.427H173.658C176.158 192.427 178.554 191.435 180.322 189.67C182.089 187.905 183.082 185.511 183.082 183.015C183.082 180.518 182.089 178.124 180.322 176.359C178.554 174.594 176.158 173.602 173.658 173.602Z" fill="white"/>
<path d="M173.658 193.034H58.7558C56.0954 193.034 53.5439 191.979 51.6627 190.1C49.7815 188.221 48.7246 185.672 48.7246 183.015C48.7246 180.357 49.7815 177.809 51.6627 175.93C53.5439 174.05 56.0954 172.995 58.7558 172.995H173.658C176.319 172.995 178.87 174.05 180.752 175.93C182.633 177.809 183.69 180.357 183.69 183.015C183.69 185.672 182.633 188.221 180.752 190.1C178.87 191.979 176.319 193.034 173.658 193.034ZM58.7558 174.209C56.4178 174.209 54.1756 175.137 52.5224 176.788C50.8693 178.44 49.9405 180.679 49.9405 183.015C49.9405 185.35 50.8693 187.59 52.5224 189.241C54.1756 190.892 56.4178 191.82 58.7558 191.82H173.658C175.996 191.82 178.239 190.892 179.892 189.241C181.545 187.59 182.474 185.35 182.474 183.015C182.474 180.679 181.545 178.44 179.892 176.788C178.239 175.137 175.996 174.209 173.658 174.209H58.7558Z" fill="#FFB200"/>
<path d="M180.434 214.679H129.727C129.016 214.679 128.334 214.397 127.832 213.895C127.329 213.393 127.047 212.712 127.047 212.002C127.047 211.292 127.329 210.611 127.832 210.109C128.334 209.607 129.016 209.325 129.727 209.325H180.434C181.144 209.325 181.826 209.607 182.329 210.109C182.831 210.611 183.114 211.292 183.114 212.002C183.114 212.712 182.831 213.393 182.329 213.895C181.826 214.397 181.144 214.679 180.434 214.679Z" fill="#FFB200"/>
<path d="M262.951 279.66C263.233 279.673 263.513 279.599 263.752 279.448C263.991 279.297 264.178 279.076 264.287 278.815C264.396 278.554 264.422 278.266 264.362 277.99C264.302 277.714 264.158 277.463 263.95 277.272L263.856 276.896C263.868 276.866 263.881 276.836 263.894 276.806C264.178 276.134 264.655 275.562 265.265 275.16C265.874 274.758 266.589 274.545 267.319 274.548C268.049 274.551 268.762 274.769 269.369 275.175C269.975 275.581 270.448 276.158 270.728 276.831C271.845 279.52 273.269 282.214 273.619 285.057C273.773 286.314 273.708 287.588 273.427 288.823C276.052 283.102 277.415 276.885 277.424 270.592C277.425 269.013 277.337 267.435 277.161 265.866C277.016 264.579 276.814 263.302 276.556 262.034C275.149 255.153 272.128 248.703 267.741 243.215C265.617 242.058 263.9 240.278 262.821 238.116C262.43 237.339 262.153 236.509 262 235.653C262.24 235.684 262.903 232.041 262.722 231.817C263.056 231.311 263.654 231.06 264.018 230.566C265.831 228.111 268.329 228.539 269.633 231.876C272.419 233.28 272.446 235.609 270.737 237.849C269.649 239.275 269.5 241.203 268.546 242.729C268.644 242.854 268.746 242.976 268.844 243.101C270.639 245.406 272.203 247.881 273.514 250.491C273.195 247.567 273.576 244.61 274.624 241.862C275.687 239.301 277.679 237.144 279.433 234.93C279.897 234.335 280.527 233.891 281.244 233.654C281.961 233.417 282.731 233.397 283.459 233.598C284.187 233.798 284.839 234.21 285.332 234.78C285.826 235.35 286.139 236.054 286.233 236.802C286.236 236.835 286.24 236.868 286.243 236.9C285.983 237.047 285.728 237.203 285.478 237.368C285.165 237.577 284.922 237.876 284.781 238.226C284.641 238.575 284.609 238.959 284.691 239.327C284.772 239.694 284.963 240.029 285.238 240.286C285.513 240.544 285.86 240.712 286.233 240.77L286.271 240.775C286.178 241.714 286.014 242.643 285.78 243.556C288.03 252.25 283.172 255.416 276.234 255.558C276.081 255.637 275.932 255.715 275.779 255.79C277.096 259.519 277.922 263.403 278.237 267.345C278.415 269.67 278.404 272.006 278.205 274.33L278.217 274.248C278.72 271.664 280.1 269.332 282.124 267.647C285.131 265.18 289.379 264.271 292.622 262.288C292.967 262.067 293.368 261.949 293.778 261.948C294.187 261.947 294.589 262.063 294.934 262.282C295.28 262.502 295.556 262.815 295.729 263.186C295.903 263.557 295.966 263.969 295.912 264.375L295.899 264.462C295.415 264.658 294.945 264.885 294.489 265.14C294.229 265.287 293.974 265.443 293.724 265.608C293.411 265.817 293.168 266.116 293.027 266.465C292.887 266.815 292.855 267.199 292.937 267.566C293.018 267.934 293.209 268.269 293.484 268.526C293.759 268.784 294.106 268.952 294.479 269.01L294.517 269.015C294.544 269.019 294.568 269.023 294.595 269.027C293.769 270.998 292.609 272.811 291.167 274.389C289.76 281.978 283.716 282.698 277.251 280.488H277.247C276.538 283.567 275.51 286.564 274.18 289.431H263.225C263.186 289.309 263.151 289.183 263.115 289.062C264.129 289.126 265.147 289.065 266.147 288.881C265.334 287.885 264.521 286.881 263.708 285.885C263.69 285.866 263.673 285.847 263.657 285.826C263.245 285.316 262.828 284.81 262.416 284.3L262.416 284.3C262.394 282.737 262.574 281.177 262.95 279.66L262.951 279.66Z" fill="#FFB200"/>
</g>
<defs>
<clipPath id="clip0_24_534">
<rect width="300" height="292" fill="white"/>
</clipPath>
</defs>
</svg>
